<svg xmlns="http://www.w3.org/2000/svg" width="320" height="240" viewBox="0 0 320 240">
  <!-- A whole pot of raw clay, hand-formed -->
  <ellipse cx="160" cy="197" rx="40" ry="5" fill="#000" opacity=".2"/>
  <!-- a hand-formed pot of raw clay: a little lumpy, open at the top -->
  <clipPath id="cp-pot"><path d="M135 196C132 195 122 193.3 117 190C112 186.7 107.8 181.2 105 176C102.2 170.8 100.6 165 100.5 159C100.4 153 103.1 145.8 104.5 140C105.9 134.2 106.6 129 109 124C111.4 119 116.4 113.8 119 110C121.6 106.2 123.3 103.7 124.5 101C125.7 98.3 125.8 95.2 126 94L194 94C194.2 95.2 194.2 98.3 195.5 101C196.8 103.7 199.2 106.2 202 110C204.8 113.8 209.8 119.2 212.5 124C215.2 128.8 217.8 133.5 218.5 139C219.2 144.5 217.1 150.8 216.5 157C215.9 163.2 217.2 170.5 215 176C212.8 181.5 208 186.7 203 190C198 193.3 188 195 185 196Z"/></clipPath>
  <path fill="#8d7b6a" d="M135 196C132 195 122 193.3 117 190C112 186.7 107.8 181.2 105 176C102.2 170.8 100.6 165 100.5 159C100.4 153 103.1 145.8 104.5 140C105.9 134.2 106.6 129 109 124C111.4 119 116.4 113.8 119 110C121.6 106.2 123.3 103.7 124.5 101C125.7 98.3 125.8 95.2 126 94L194 94C194.2 95.2 194.2 98.3 195.5 101C196.8 103.7 199.2 106.2 202 110C204.8 113.8 209.8 119.2 212.5 124C215.2 128.8 217.8 133.5 218.5 139C219.2 144.5 217.1 150.8 216.5 157C215.9 163.2 217.2 170.5 215 176C212.8 181.5 208 186.7 203 190C198 193.3 188 195 185 196Z"/>
  <g clip-path="url(#cp-pot)">
    <path fill="#76665a" d="M190 76H234V200H182Z"/>
    <path fill="#a08e7c" d="M114 144C113 130 118 119 127 111C121 120 118 131 119 145Z"/>
    <!-- finger dents -->
    <!-- thumbprints: a shaded dent with a lit lower lip -->
    <ellipse cx="124" cy="171" rx="5.5" ry="3.8" transform="rotate(-30 124 171)" fill="#76665a"/>
    <path fill="#a08e7c" d="M119 174.5c3 1.8 7 1 9.8-2.2-1.8 4-6 5.8-9.8 2.2z"/>
    <ellipse cx="203" cy="126" rx="4.6" ry="3.4" transform="rotate(28 203 126)" fill="#665749"/>
  </g>
  <clipPath id="cp-rim"><path d="M194.5 93C194.8 94.3 194 96 191.1 97.1C188.1 98.2 182.1 99 176.9 99.6C171.7 100.3 165.7 101 160 101C154.3 101.1 147.6 100.5 142.8 99.8C137.9 99 134.1 97.9 131 96.8C128 95.7 124.8 94.3 124.5 93C124.1 91.7 125.6 90 128.8 88.9C131.9 87.8 138.1 87.1 143.3 86.4C148.5 85.8 154.3 85 160 85C165.7 85 172.4 85.5 177.2 86.2C182.1 86.9 186.4 88.1 189.3 89.2C192.2 90.3 194.2 91.7 194.5 93Z"/></clipPath>
  <path fill="#a08e7c" d="M194.5 93C194.8 94.3 194 96 191.1 97.1C188.1 98.2 182.1 99 176.9 99.6C171.7 100.3 165.7 101 160 101C154.3 101.1 147.6 100.5 142.8 99.8C137.9 99 134.1 97.9 131 96.8C128 95.7 124.8 94.3 124.5 93C124.1 91.7 125.6 90 128.8 88.9C131.9 87.8 138.1 87.1 143.3 86.4C148.5 85.8 154.3 85 160 85C165.7 85 172.4 85.5 177.2 86.2C182.1 86.9 186.4 88.1 189.3 89.2C192.2 90.3 194.2 91.7 194.5 93Z"/>
  <path clip-path="url(#cp-rim)" fill="#8d7b6a" d="M190 80H200V104H189Z"/>
  <path fill="#4f4339" d="M187.5 93.7C187.6 94.6 186.6 95.7 184.3 96.5C182 97.2 177.8 98 173.8 98.4C169.7 98.8 164.6 99 160 99C155.4 99 149.9 98.9 146 98.5C142 98 138.3 97.2 136.2 96.4C134.1 95.6 133.4 94.6 133.3 93.7C133.2 92.8 133.6 91.7 135.7 90.9C137.9 90.2 142.2 89.5 146.2 89C150.3 88.6 155.5 88.2 160 88.2C164.5 88.2 169.5 88.6 173.5 89.1C177.4 89.6 181.5 90.2 183.8 91C186.2 91.8 187.4 92.8 187.5 93.7Z"/>
</svg>
