<svg xmlns="http://www.w3.org/2000/svg" width="64" height="64" viewBox="0 0 64 64">
  <!-- a woven straw hat with a red band, crowned with wheat ears -->
  <defs>
    <g id="gh-ear">
      <rect x="31" y="20" width="2" height="16" fill="#c9962a"/>
      <g fill="#e8c25a">
        <ellipse cx="32" cy="7" rx="2.3" ry="3.6"/>
        <ellipse cx="29.8" cy="11.5" rx="2.3" ry="3.4" transform="rotate(-28 29.8 11.5)"/>
        <ellipse cx="29.8" cy="16.5" rx="2.3" ry="3.4" transform="rotate(-28 29.8 16.5)"/>
        <ellipse cx="29.8" cy="21.5" rx="2.3" ry="3.4" transform="rotate(-28 29.8 21.5)"/>
      </g>
      <g fill="#d3a841">
        <ellipse cx="34.2" cy="11.5" rx="2.3" ry="3.4" transform="rotate(28 34.2 11.5)"/>
        <ellipse cx="34.2" cy="16.5" rx="2.3" ry="3.4" transform="rotate(28 34.2 16.5)"/>
        <ellipse cx="34.2" cy="21.5" rx="2.3" ry="3.4" transform="rotate(28 34.2 21.5)"/>
      </g>
    </g>
  </defs>
  <use href="#gh-ear" transform="rotate(-36 32 46)"/>
  <use href="#gh-ear" transform="rotate(36 32 46)"/>
  <use href="#gh-ear" transform="rotate(-18 32 46)"/>
  <use href="#gh-ear" transform="rotate(18 32 46)"/>
  <use href="#gh-ear"/>
  <!-- brim -->
  <clipPath id="gh-brim"><ellipse cx="32" cy="51" rx="28" ry="8"/></clipPath>
  <ellipse cx="32" cy="51" rx="28" ry="8" fill="#e8c25a"/>
  <path clip-path="url(#gh-brim)" fill="#d3a841" d="M47 40h17v24H48z"/>
  <!-- crown, woven -->
  <clipPath id="gh-crown"><path d="M17 50V35c0-4 6-6 15-6s15 2 15 6v15c-9 2-21 2-30 0z"/></clipPath>
  <path fill="#e8c25a" d="M17 50V35c0-4 6-6 15-6s15 2 15 6v15c-9 2-21 2-30 0z"/>
  <g clip-path="url(#gh-crown)">
    <path fill="#d3a841" d="M41 20h10v40H41z"/>
    <path fill="#c9962a" d="M17 34.5c9 2.5 21 2.5 30 0v1.8c-9 2.5-21 2.5-30 0z M17 38.5c9 2.5 21 2.5 30 0v1.2c-9 2.5-21 2.5-30 0z"/>
    <!-- red band -->
    <path fill="#c0412e" d="M17 41c9 2.5 21 2.5 30 0v6.5c-9 2.5-21 2.5-30 0z"/>
    <path fill="#9c3324" d="M41 42.2c2-.3 4-.7 6-1.2v6.5c-2 .5-4 .9-6 1.2z"/>
  </g>
</svg>
